<?xml version="1.0" encoding="UTF-8"?>
<svg version="1.1" xmlns="http://www.w3.org/2000/svg" width="512" height="512">
<path d="M0 0 C1.60238899 -0.00913666 1.60238899 -0.00913666 3.23714948 -0.01845789 C6.80512035 -0.03506359 10.37273339 -0.03031537 13.94073486 -0.0255127 C16.50369639 -0.03285448 19.06665461 -0.04144102 21.62960815 -0.05117798 C27.86233741 -0.07108668 34.09493573 -0.07677509 40.32769248 -0.07499009 C45.39701366 -0.07368027 50.4663059 -0.07749785 55.53562164 -0.08491516 C56.99824055 -0.08701446 58.46085946 -0.08911206 59.92347836 -0.09120798 C60.65157292 -0.09225151 61.37966748 -0.09329504 62.1298255 -0.09437019 C75.88860288 -0.11325699 89.6473269 -0.11222737 103.40611187 -0.10540086 C115.97497434 -0.09982851 128.54363278 -0.1206404 141.11244759 -0.15376133 C154.03559815 -0.18755009 166.95865113 -0.20266009 179.88184667 -0.1980443 C187.1301765 -0.19580459 194.37831785 -0.20096929 201.6266098 -0.22593689 C208.44589966 -0.24922768 215.26475925 -0.24630436 222.08405685 -0.22600937 C224.58171545 -0.22260371 227.07940271 -0.22766909 229.57702255 -0.24199295 C258.11636141 -0.39432486 258.11636141 -0.39432486 268.64874268 9.67565918 C278.42187004 20.70175159 279.62972919 31.73568437 279.35968018 46.01940918 C279.34459623 47.41913426 279.33091443 48.81887518 279.31866455 50.21862793 C279.28357138 53.61096762 279.23440283 57.00247693 279.17218018 60.39440918 C279.78526031 60.38774734 280.39834045 60.38108551 281.02999878 60.3742218 C287.42157742 60.30775613 293.81305756 60.26256187 300.20489502 60.22961426 C302.58905018 60.21454518 304.97317771 60.19408627 307.35723877 60.16809082 C310.78780955 60.13162581 314.21801318 60.11466366 317.64874268 60.10144043 C319.24282455 60.07821465 319.24282455 60.07821465 320.86911011 60.05451965 C327.95416907 60.05291517 332.30181459 60.99131241 337.85968018 65.64440918 C343.47531392 72.32246012 343.66847339 78.59594487 343.60968018 87.01940918 C343.62966064 88.0429248 343.64964111 89.06644043 343.67022705 90.12097168 C343.66728831 94.63488058 343.62758572 97.58068455 341.39483643 101.57019043 C339.05599806 103.48976427 338.14977138 104.05577451 335.17218018 103.95690918 C334.51218018 103.95819824 333.85218018 103.9594873 333.17218018 103.96081543 C330.02631274 103.06989594 329.03461985 102.12923345 327.17218018 99.39440918 C326.56074337 95.83810081 326.52082594 92.30943684 326.48468018 88.70690918 C326.44278879 86.78625244 326.39741003 84.86566747 326.34796143 82.94519043 C326.3367627 82.09610107 326.32556396 81.24701172 326.31402588 80.37219238 C326.3890017 78.39299345 326.3890017 78.39299345 325.17218018 77.39440918 C323.77039687 77.29678395 322.36373565 77.2680926 320.95855713 77.26742554 C320.04989899 77.26460571 319.14124084 77.26178589 318.20504761 77.25888062 C317.20033417 77.26090485 316.19562073 77.26292908 315.16046143 77.26501465 C313.58257339 77.26238617 313.58257339 77.26238617 311.97280884 77.25970459 C308.47674943 77.25528375 304.98074014 77.25822488 301.48468018 77.26159668 C299.06711823 77.26092371 296.64955634 77.25995374 294.23199463 77.25869751 C289.15768796 77.25722022 284.08339887 77.25937609 279.00909424 77.26403809 C272.48833315 77.26973538 265.96761321 77.26645654 259.44685364 77.26046562 C254.45249112 77.25686085 249.45813844 77.25799821 244.46377563 77.26059341 C242.05868525 77.26126291 239.65359399 77.26043346 237.24850464 77.25811386 C233.89361182 77.2555887 230.53878667 77.25942601 227.18389893 77.26501465 C226.17918549 77.26299042 225.17447205 77.26096619 224.13931274 77.25888062 C222.77632553 77.26311035 222.77632553 77.26311035 221.38580322 77.26742554 C220.19449043 77.26799108 220.19449043 77.26799108 218.97911072 77.26856804 C217.15051206 77.19732006 217.15051206 77.19732006 216.17218018 78.39440918 C216.0721249 81.07280971 216.03777966 83.72549337 216.04519653 86.40441895 C216.04285655 87.67871057 216.04285655 87.67871057 216.04046929 88.97874546 C216.0364556 91.84778602 216.03965035 94.7167744 216.04278564 97.58581543 C216.04143177 99.63357576 216.03965191 101.68133584 216.03747559 103.72909546 C216.03289964 109.30744392 216.03469147 114.88577397 216.03785467 120.46412277 C216.04037744 126.28797202 216.03804097 132.11181964 216.03646851 137.93566895 C216.03464657 147.71781702 216.03705375 157.49995756 216.04180908 167.28210449 C216.04725175 178.60934204 216.04548911 189.9365616 216.03998268 201.26379871 C216.03545224 210.96991283 216.03480066 220.67602151 216.03742135 230.38213634 C216.0389845 236.18759138 216.03917684 241.99303794 216.03588486 247.79849243 C216.03300714 253.25503512 216.03497999 258.71155448 216.04077911 264.16809464 C216.04210725 266.17692145 216.0417117 268.18575021 216.03951645 270.19457626 C216.03680703 272.92454428 216.04018349 275.65443631 216.04519653 278.38439941 C216.04185045 279.59298284 216.04185045 279.59298284 216.03843677 280.82598209 C215.71699892 284.40630092 215.71699892 284.40630092 217.17218018 287.39440918 C218.57396348 287.49203441 219.9806247 287.52072576 221.38580322 287.52139282 C222.29446136 287.52421265 223.20311951 287.52703247 224.13931274 287.52993774 C225.14402618 287.52791351 226.14873962 287.52588928 227.18389893 287.52380371 C228.76178696 287.52643219 228.76178696 287.52643219 230.37155151 287.52911377 C233.86761092 287.53353461 237.36362021 287.53059347 240.85968018 287.52722168 C243.27724212 287.52789465 245.69480401 287.52886462 248.11236572 287.53012085 C253.18667239 287.53159814 258.26096149 287.52944227 263.33526611 287.52478027 C269.8560272 287.51908298 276.37674714 287.52236181 282.89750671 287.52835274 C287.89186923 287.53195751 292.88622191 287.53082015 297.88058472 287.52822495 C300.2856751 287.52755544 302.69076636 287.5283849 305.09585571 287.5307045 C308.45074853 287.53322966 311.80557368 287.52939235 315.16046143 287.52380371 C316.16517487 287.52582794 317.16988831 287.52785217 318.20504761 287.52993774 C319.56803482 287.52570801 319.56803482 287.52570801 320.95855713 287.52139282 C322.14986992 287.52082728 322.14986992 287.52082728 323.36524963 287.52025032 C325.19384829 287.5914983 325.19384829 287.5914983 326.17218018 286.39440918 C326.27465699 284.3532644 326.30573253 282.30852699 326.31021118 280.26481628 C326.31303246 279.6174993 326.31585374 278.97018231 326.31876051 278.30324966 C326.32714193 276.11837363 326.32844778 273.93354805 326.32989502 271.74865723 C326.33456067 270.18851579 326.33970381 268.62837571 326.34529114 267.0682373 C326.35659227 263.70042231 326.36501671 260.33261627 326.37141037 256.96478844 C326.3820664 251.64139356 326.40230487 246.31806279 326.42453003 240.9947052 C326.48653467 225.85428808 326.54047821 210.71387422 326.57354736 195.57336426 C326.59187805 187.21762532 326.62079536 178.86199317 326.66155207 170.5063327 C326.68265021 166.08183316 326.69808327 161.65746838 326.70035934 157.23291588 C326.70250291 153.07061399 326.71834225 148.90859256 326.74474907 144.74637604 C326.75195499 143.21775419 326.75403678 141.68909841 326.75064659 140.16046333 C326.74675991 138.07495971 326.76117885 135.99035536 326.78018188 133.904953 C326.78349203 132.73741832 326.78680218 131.56988363 326.79021263 130.36696911 C327.21165603 127.08719895 327.84623118 125.70994655 330.17218018 123.39440918 C333.48804596 122.38523264 335.55718724 122.24066095 338.92218018 123.08190918 C341.63036202 124.66168192 342.07780816 125.48802369 343.17218018 128.39440918 C343.42944908 131.37865067 343.42944908 131.37865067 343.43960571 134.93377686 C343.44413683 135.58900196 343.44866794 136.24422706 343.45333636 136.91930747 C343.46598892 139.11322833 343.46435946 141.3069012 343.46270752 143.50085449 C343.46869236 145.07465433 343.4754978 146.64845123 343.48306274 148.22224426 C343.50073727 152.49721729 343.50541881 156.77211025 343.50669432 161.04711628 C343.50811597 163.71932368 343.51238589 166.39151073 343.51768875 169.06371307 C343.53619576 178.39026684 343.54435876 187.71676344 343.54278564 197.04333496 C343.54158494 205.72978849 343.56267147 214.41599325 343.59427297 223.10238385 C343.62045223 230.56496002 343.63115221 238.02745506 343.62987483 245.49007678 C343.62936556 249.94490217 343.63502885 254.39950664 343.65623093 258.85428619 C343.67564047 263.04702558 343.6757194 267.23933398 343.66119766 271.43208885 C343.65911163 272.96711801 343.66379827 274.50217433 343.67591858 276.03715706 C343.79625562 292.33911866 343.79625562 292.33911866 337.79566002 298.89929581 C331.31290829 304.82670609 324.35889171 304.6735266 316.08624268 304.58972168 C314.50086197 304.58547684 314.50086197 304.58547684 312.88345337 304.58114624 C309.52124517 304.56998768 306.15930732 304.54489077 302.79718018 304.51940918 C300.51202778 304.5093738 298.2268712 304.50024893 295.94171143 304.49206543 C290.35177607 304.4700625 284.76199744 304.43662791 279.17218018 304.39440918 C279.17586735 305.30071201 279.17955452 306.20701485 279.18335342 307.1407814 C279.27181636 329.22635691 279.3379442 351.31190175 279.37942886 373.39761734 C279.40002545 384.07825344 279.42809045 394.75877103 279.47393799 405.43933105 C279.51389474 414.75204861 279.53963408 424.06468032 279.54853415 433.37748122 C279.55373395 438.30535373 279.56589458 443.23298068 279.5951004 448.16077423 C279.62240932 452.80649359 279.63059411 457.45186806 279.6246109 462.09766006 C279.62570425 463.79549921 279.63356548 465.49335083 279.64900208 467.19112015 C279.75886374 479.90620171 278.71257317 491.33394565 270.15655518 501.42565918 C262.63538169 508.88761083 253.87090101 512.70140961 243.33811879 512.80496359 C241.85620836 512.7969717 241.85620836 512.7969717 240.34436035 512.78881836 C239.27610102 512.79490946 238.2078417 512.80100057 237.10721087 512.80727625 C233.53924 512.82388194 229.97162696 512.81913373 226.40362549 512.81433105 C223.84066396 512.82167283 221.27770574 512.83025938 218.7147522 512.83999634 C212.48202294 512.85990504 206.24942462 512.86559345 200.01666787 512.86380845 C194.94734669 512.86249862 189.87805445 512.86631621 184.80873871 512.87373352 C183.3461198 512.87583282 181.8835009 512.87793042 180.42088199 512.88002634 C179.69278743 512.88106987 178.96469288 512.8821134 178.21453485 512.88318855 C164.45575747 512.90207535 150.69703345 512.90104573 136.93824849 512.89421922 C124.36938601 512.88864687 111.80072757 512.90945876 99.23191276 512.94257969 C86.3087622 512.97636845 73.38570922 512.99147845 60.46251369 512.98686266 C53.21418385 512.98462295 45.9660425 512.98978765 38.71775055 513.01475525 C31.89846069 513.03804604 25.0796011 513.03512272 18.2603035 513.01482773 C15.7626449 513.01142207 13.26495764 513.01648745 10.7673378 513.03081131 C-17.77200106 513.18314322 -17.77200106 513.18314322 -28.30438232 503.11315918 C-36.98864143 493.31553353 -39.34614093 483.89489392 -38.62025452 470.94261169 C-38.55193389 469.85812901 -38.55193389 469.85812901 -38.48223305 468.75173759 C-38.28289102 465.57593366 -38.12357479 462.3984321 -37.96188724 459.22052193 C-37.87471832 457.50761436 -37.78572422 455.79479881 -37.69501412 454.08207512 C-37.11447611 442.94042423 -36.83130084 431.7887738 -36.53797162 420.63646984 C-36.25300498 409.83670673 -35.87939531 399.06188739 -35.18988037 388.27966309 C-31.26473419 337.36962376 -31.26473419 337.36962376 -52.87420654 293.17175293 C-63.64207127 281.23325537 -75.86391328 270.52310559 -88.63306236 260.77165222 C-89.22122354 260.31958672 -89.80938473 259.86752122 -90.41536897 259.40175676 C-91.99031865 258.20159944 -93.5802825 257.02121506 -95.17139339 255.84256744 C-99.78359827 251.59196695 -102.33885355 246.58669383 -103.06610107 240.35144043 C-103.35315693 232.05703688 -100.57499857 225.97560633 -94.96453857 219.90222168 C-93.49446017 218.42820908 -92.01108913 216.9673449 -90.51531982 215.51940918 C-89.78119873 214.77433105 -89.04707764 214.02925293 -88.29071045 213.26159668 C-82.39586414 207.44520884 -77.47922864 203.96843792 -68.89031982 203.95690918 C-67.93254639 203.93757324 -66.97477295 203.9182373 -65.98797607 203.89831543 C-57.71284646 205.1973778 -52.42134352 210.26175702 -46.82781982 216.14440918 C-46.14848389 216.84179199 -45.46914795 217.5391748 -44.76922607 218.25769043 C-43.11249661 219.96108833 -41.4659213 221.67312287 -39.82781982 223.39440918 C-39.82635326 222.41080036 -39.8248867 221.42719154 -39.8233757 220.4137764 C-39.78673659 196.45040917 -39.72722914 172.48718122 -39.64391708 148.5239296 C-39.60415374 136.93534369 -39.57174747 125.34682543 -39.55682373 113.75817871 C-39.54379324 103.65431865 -39.51679278 93.5506076 -39.47320676 83.44683146 C-39.45062353 78.09983808 -39.43490727 72.75302827 -39.43593597 67.40598297 C-39.43668443 62.36621188 -39.41865901 57.32684611 -39.38665199 52.28717995 C-39.3781805 50.44424858 -39.37638424 48.60127162 -39.38201714 46.75832939 C-39.41678399 33.62763966 -38.70956765 21.85749636 -29.81219482 11.36315918 C-21.23061285 2.84914872 -11.80305167 -0.06365342 0 0 Z M-17.82781982 22.39440918 C-24.17362849 30.95230917 -24.08671456 41.18470335 -24.72845459 51.38220215 C-24.86301534 53.30784116 -24.99813449 55.23344122 -25.13376522 57.15900517 C-26.83372211 82.16769124 -27.74956007 107.21396074 -28.39031982 132.26940918 C-28.43929672 134.06846073 -28.43929672 134.06846073 -28.48926306 135.90385675 C-32.2904476 214.57028485 -32.2904476 214.57028485 2.84693033 281.69813466 C18.87339463 298.13965615 38.00386839 311.9583242 57.86296082 323.37132263 C61.17218018 325.39440918 61.17218018 325.39440918 62.17218018 327.39440918 C62.56150215 330.97617138 62.60814735 332.75722639 60.54718018 335.76940918 C58.17218018 337.39440918 58.17218018 337.39440918 55.42218018 338.08190918 C47.57298497 336.4215025 41.06311873 327.42505293 35.55303955 321.88879395 C34.73257141 321.06847183 33.91210327 320.24814972 33.06677246 319.40296936 C30.38077853 316.71628399 27.69833474 314.02608404 25.01593018 311.33581543 C23.14428185 309.46230019 21.27243696 307.58898344 19.40032959 305.71592712 C14.9928354 301.30533897 10.58789403 296.89221058 6.18388987 292.47813791 C1.16523939 287.44826585 -3.85628961 282.42127168 -8.8780489 277.39450371 C-19.19781943 267.06431265 -29.51401453 256.73055599 -39.82781982 246.39440918 C-40.95172342 247.35278012 -42.07492557 248.31197369 -43.1978302 249.27151489 C-44.13616746 250.07260901 -44.13616746 250.07260901 -45.09346104 250.88988686 C-46.99537597 252.53976086 -48.80211746 254.25417631 -50.57391357 256.04284668 C-51.18299561 256.65515137 -51.79207764 257.26745605 -52.4196167 257.89831543 C-53.33323975 258.82450684 -53.33323975 258.82450684 -54.26531982 259.76940918 C-54.90147217 260.41007324 -55.53762451 261.0507373 -56.1930542 261.71081543 C-57.74032455 263.2697194 -59.28472274 264.8313777 -60.82781982 266.39440918 C-57.03015689 270.92685057 -53.11194678 275.25778667 -48.92784119 279.43482971 C-48.08438116 280.28274642 -48.08438116 280.28274642 -47.22388154 281.14779276 C-45.35877573 283.02149757 -43.49018093 284.89168106 -41.621521 286.76184082 C-40.27545928 288.11253678 -38.9295935 289.46342803 -37.58390808 290.8144989 C-33.9416773 294.46979314 -30.29616591 298.1217976 -26.64962554 301.7727921 C-24.36859735 304.05675948 -22.08815393 306.34130917 -19.80788612 308.62603569 C-12.66451734 315.78306048 -5.51916198 322.93809301 1.62910348 330.09022719 C9.86523377 338.33084038 18.09478068 346.57795408 26.31866437 354.83078867 C32.68808351 361.22184712 39.06327791 367.60710702 45.44285792 373.98802274 C49.24785645 377.79406723 53.05040686 381.60248173 56.84696388 385.41694832 C60.4182372 389.00474223 63.99665449 392.58525565 67.58057213 396.16041756 C68.8904349 397.46951222 70.19776219 398.78114983 71.50227356 400.09557724 C80.02038323 408.67459846 88.03203265 416.01946175 99.39483643 420.60534668 C100.34126259 420.99214096 100.34126259 420.99214096 101.30680847 421.38674927 C103.27911362 422.19036211 105.25660679 422.98011793 107.23468018 423.76940918 C108.59117235 424.31927268 109.94729534 424.87004784 111.30303955 425.42175293 C114.58857085 426.75649121 117.87890089 428.07888469 121.17218018 429.39440918 C122.50317177 427.31628181 122.50317177 427.31628181 121.27935791 424.63220215 C119.37770661 419.95721095 119.37770661 419.95721095 117.45025635 415.29284668 C116.62387079 413.30356888 115.81820846 411.30678981 115.01397705 409.30847168 C114.48332991 408.02149562 113.95146395 406.73502131 113.41827393 405.44909668 C112.9405957 404.2887793 112.46291748 403.12846191 111.97076416 401.9329834 C108.23274577 394.57872271 102.91437738 388.84976398 97.05889893 383.12097168 C96.40387894 382.47115326 95.74885895 381.82133484 95.07398987 381.15182495 C93.00732683 379.10279274 90.93401865 377.06066835 88.85968018 375.01940918 C86.7684372 372.95580589 84.67869884 370.89073222 82.59181213 368.82272339 C81.29914003 367.54229399 80.0038039 366.26454734 78.70555115 364.98977661 C73.21458396 359.56051317 73.21458396 359.56051317 73.04718018 354.95690918 C73.17218018 351.39440918 73.17218018 351.39440918 74.17218018 348.39440918 C78.5078898 347.82347798 82.46727211 347.42558766 86.36975098 349.64318848 C88.55358418 351.48879265 90.5403861 353.42845833 92.52374268 355.48815918 C93.26748138 356.22707397 94.01122009 356.96598877 94.77749634 357.72729492 C96.34408372 359.2958363 97.89832433 360.87679469 99.44073486 362.46911621 C101.76680305 364.86314453 104.13627101 367.20612887 106.51593018 369.54675293 C115.70751217 378.75418405 122.23776159 387.3703453 127.17218018 399.39440918 C128.14926517 401.54840881 129.12707705 403.70207894 130.10577393 405.85534668 C130.94610871 407.82427811 131.78088756 409.79559147 132.60968018 411.76940918 C133.04216064 412.75812012 133.47464111 413.74683105 133.92022705 414.76550293 C136.68273202 421.32807342 139.63072835 428.65339883 137.43927002 435.7767334 C136.09266017 438.87902178 134.53662312 441.04100996 132.10968018 443.39440918 C122.5809999 446.63821523 113.98097396 443.34219292 105.12921143 439.5970459 C103.18242005 438.77373967 101.22603454 437.97839199 99.26593018 437.18737793 C95.53200763 435.66465977 91.84891759 434.05079172 88.17218018 432.39440918 C86.72198486 431.74327148 86.72198486 431.74327148 85.24249268 431.07897949 C70.31606666 423.69688837 58.50092835 408.85171736 46.90140533 397.19879913 C44.07130316 394.3557858 41.2380318 391.51596623 38.40380859 388.67706299 C32.40691621 382.66918374 26.41435186 376.6569962 20.42218018 370.64440918 C13.90838852 364.10853622 7.39380278 357.57346448 0.87438846 351.0431993 C-2.3985333 347.76449192 -5.66754144 344.48191165 -8.93591309 341.19866943 C-10.63248323 339.49847067 -12.32919173 337.79840996 -14.02606201 336.09851074 C-15.19627899 334.92054428 -15.19627899 334.92054428 -16.39013672 333.71878052 C-17.09634155 333.01250519 -17.80254639 332.30622986 -18.53015137 331.57855225 C-19.14653851 330.9599445 -19.76292564 330.34133675 -20.39799118 329.70398331 C-21.6275734 328.2818399 -21.6275734 328.2818399 -22.82781982 328.39440918 C-22.82781982 372.28440918 -22.82781982 416.17440918 -22.82781982 461.39440918 C71.55218018 461.39440918 165.93218018 461.39440918 263.17218018 461.39440918 C263.17218018 409.58440918 263.17218018 357.77440918 263.17218018 304.39440918 C247.33218018 304.06440918 231.49218018 303.73440918 215.17218018 303.39440918 C207.52961503 300.52844725 204.67512049 299.22066465 201.0556612 292.24149895 C199.86252078 288.3965065 199.89296517 284.70123997 199.91148376 280.7159729 C199.90765822 279.84275953 199.90383267 278.96954616 199.8998912 278.06987178 C199.88957364 275.14429825 199.89355101 272.21892143 199.89752197 269.29333496 C199.8931748 267.19560566 199.88799163 265.09787794 199.8820343 263.00015259 C199.86863325 257.30179542 199.8680669 251.60350453 199.8705976 245.90513468 C199.87166663 241.14861989 199.86678567 236.39211855 199.86199218 231.63560665 C199.85089303 220.414084 199.8504618 209.19259482 199.85650635 197.97106934 C199.86254659 186.39389005 199.85023473 174.81683228 199.82893628 163.23967373 C199.81132374 153.30068439 199.8053184 143.36173375 199.80857402 133.42272937 C199.81038767 127.48632624 199.80774251 121.55000977 199.79385948 115.61362076 C199.7812916 110.03055135 199.78321552 104.44767142 199.79627037 98.86460495 C199.79863801 96.81636745 199.79589479 94.76811667 199.78764725 92.71989441 C199.777194 89.92198042 199.78526919 87.12470387 199.79795837 84.32681274 C199.79058409 83.5179503 199.7832098 82.70908785 199.77561206 81.87571442 C199.82556629 76.63319907 200.85714195 73.10120052 203.17218018 68.39440918 C203.50218018 67.40440918 203.83218018 66.41440918 204.17218018 65.39440918 C205.92218018 64.33190918 205.92218018 64.33190918 208.17218018 63.39440918 C209.3197303 62.88026962 209.3197303 62.88026962 210.49046326 62.35574341 C213.28147734 61.35522864 215.37737299 61.12040625 218.32965088 61.07556152 C219.33031082 61.05569183 220.33097076 61.03582214 221.36195374 61.01535034 C222.42983627 61.00379913 223.49771881 60.99224792 224.59796143 60.98034668 C226.25205269 60.95129745 226.25205269 60.95129745 227.93955994 60.92166138 C231.45452184 60.86197995 234.96951669 60.81552543 238.48468018 60.76940918 C240.870762 60.73121892 243.2568302 60.69216658 245.6428833 60.65222168 C251.48586107 60.55628775 257.32892124 60.47120671 263.17218018 60.39440918 C263.28908091 55.89463034 263.35966855 51.39524631 263.42218018 46.89440918 C263.47245361 44.99175293 263.47245361 44.99175293 263.52374268 43.05065918 C263.61790996 34.01059961 262.7371908 28.61613229 256.79718018 21.58190918 C249.67631301 15.64785321 242.54961942 15.23975258 233.59649658 15.28088379 C232.75681335 15.28073776 231.91713013 15.28059174 231.05200195 15.28044128 C228.29255539 15.28113473 225.53317737 15.28890044 222.77374268 15.29675293 C220.85417721 15.29861913 218.93461127 15.30004208 217.01504517 15.30104065 C211.97463658 15.30484993 206.93425702 15.31466661 201.89385986 15.32574463 C196.74575188 15.33599295 191.59763918 15.34054559 186.44952393 15.34558105 C176.35706329 15.35629034 166.26462415 15.37334763 156.17218018 15.39440918 C156.1239209 16.55561279 156.07566162 17.71681641 156.02593994 18.91320801 C155.95145324 20.45514132 155.87647612 21.997051 155.80108643 23.53894043 C155.77067261 24.30210571 155.74025879 25.065271 155.70892334 25.8515625 C155.33123059 33.20174027 153.62613046 38.94045889 148.30889893 44.25769043 C140.48726384 50.62131199 132.04713656 50.74196002 122.32110596 50.71008301 C120.30867071 50.7069272 118.29771524 50.73041821 116.28546143 50.7557373 C106.55057313 50.76059019 97.98259498 50.15749227 90.67608643 43.15612793 C85.6030334 37.21340868 84.90602008 31.12229503 84.57061768 23.57019043 C84.53025391 22.78277466 84.48989014 21.99535889 84.44830322 21.18408203 C84.35025024 19.25448719 84.2603891 17.32447908 84.17218018 15.39440918 C73.11462723 15.34796724 62.05709769 15.31247982 50.9994669 15.29078484 C45.86437586 15.28036974 40.72935181 15.2662522 35.59429932 15.24353027 C30.63410221 15.22172065 25.67396933 15.20982346 20.71372795 15.20465469 C18.82600838 15.20097348 16.93829212 15.19378514 15.05060005 15.18294907 C12.39647078 15.16832613 9.74260334 15.16643573 7.08843994 15.1673584 C6.31663391 15.16016785 5.54482788 15.15297729 4.74963379 15.14556885 C-3.53328135 15.17651014 -11.86269509 16.14911241 -17.82781982 22.39440918 Z M100.17218018 15.39440918 C98.81257537 28.17744149 98.81257537 28.17744149 102.54718018 32.70690918 C108.14804331 36.30746405 113.37835016 35.65402262 119.92218018 35.70690918 C121.10296143 35.73591309 122.28374268 35.76491699 123.50030518 35.7947998 C132.15556442 35.89166972 132.15556442 35.89166972 139.17218018 31.39440918 C141.56197329 26.61482296 140.17218018 20.73814903 140.17218018 15.39440918 C126.97218018 15.39440918 113.77218018 15.39440918 100.17218018 15.39440918 Z M-79.14031982 227.08190918 C-80.08874756 228.02066895 -80.08874756 228.02066895 -81.05633545 228.97839355 C-85.50846558 233.42025989 -85.50846558 233.42025989 -86.82781982 239.39440918 C-83.69753727 245.80403536 -77.89565191 250.50066293 -72.82781982 255.39440918 C-67.76158214 251.15624381 -63.02743914 246.72031955 -58.39031982 242.01940918 C-57.75416748 241.37874512 -57.11801514 240.73808105 -56.46258545 240.07800293 C-54.91531651 238.51910039 -53.37045491 236.95789502 -51.82781982 235.39440918 C-56.73984286 229.59758539 -56.73984286 229.59758539 -61.82781982 223.95690918 C-62.44656982 223.27757324 -63.06531982 222.5982373 -63.70281982 221.89831543 C-65.7947446 220.21551956 -65.7947446 220.21551956 -68.62078857 219.75378418 C-73.44571352 220.71759379 -75.82701563 223.59440393 -79.14031982 227.08190918 Z M-22.82781982 477.39440918 C-21.62585042 484.60622562 -19.6160363 488.98640404 -14.07781982 493.76940918 C-6.88880154 497.36391832 0.54171721 497.68688528 8.45709229 497.64837646 C9.95368205 497.65305644 9.95368205 497.65305644 11.48050594 497.65783095 C14.80357311 497.66576978 18.12645559 497.65950335 21.44952393 497.65319824 C23.84016018 497.65590993 26.2307956 497.65947186 28.62142944 497.66381836 C34.42854637 497.67197896 40.23560521 497.6708016 46.04272389 497.66499308 C50.76449968 497.66046667 55.48626099 497.65986791 60.20803833 497.66204071 C60.88140856 497.66234718 61.55477878 497.66265364 62.24855417 497.6629694 C63.61671679 497.66360888 64.9848794 497.66425731 66.35304201 497.66491458 C79.16652683 497.67061051 91.97998299 497.66407156 104.79346311 497.65331385 C115.77551075 497.644379 126.75751611 497.64593125 137.73956299 497.65515137 C150.50884096 497.66586704 163.27809384 497.67006126 176.04737568 497.66392684 C177.41035779 497.66328978 178.7733399 497.66266103 180.13632202 497.66204071 C180.80684363 497.66173216 181.47736524 497.66142361 182.16820568 497.66110571 C186.88144056 497.65938266 191.59465945 497.66228545 196.30789185 497.66699982 C202.65759043 497.67278439 209.00720928 497.66875592 215.35689926 497.6572113 C217.68488304 497.65457069 220.01287356 497.65531958 222.34085464 497.65973663 C225.52308252 497.66521705 228.7050563 497.65832753 231.88726807 497.64837646 C232.8043048 497.65283791 233.72134153 497.65729935 234.66616726 497.66189599 C242.87102268 497.61227115 250.7516904 496.93937762 257.17218018 491.39440918 C260.8953364 486.67235738 262.15691488 483.48600096 263.17218018 477.39440918 C168.79218018 477.39440918 74.41218018 477.39440918 -22.82781982 477.39440918 Z " fill="#000000" transform="translate(135.82781982421875,-0.3944091796875)"/>
<path d="M0 0 C9.51695331 6.8602773 15.19596309 15.44932959 17.984375 26.87109375 C21.38700592 48.68195794 10.48070024 68.38919225 1.1875 87.3125 C0.09902727 89.53364127 -0.98840646 91.75527617 -2.07380676 93.97792053 C-2.74301841 95.34786886 -3.41404266 96.7169338 -4.08720398 98.08494568 C-5.74207922 101.46812009 -7.28238776 104.85563301 -8.625 108.375 C-7.73683594 107.92511719 -6.84867188 107.47523438 -5.93359375 107.01171875 C-2.37096667 105.21375742 1.2011254 103.43531945 4.77685547 101.66357422 C6.57415447 100.77218688 8.36995881 99.87778183 10.16455078 98.98095703 C45.15609511 81.54700738 45.15609511 81.54700738 64.6875 86.4375 C76.56899323 90.66115374 84.85952311 99.63041871 90.33203125 110.6875 C99.8102704 135.11082785 90.3440222 162.95746483 80.37353516 185.65478516 C78.21274736 190.32230234 75.82923568 194.85652943 73.375 199.375 C72.84737061 200.36790039 72.84737061 200.36790039 72.30908203 201.38085938 C50.71692564 241.94500036 50.71692564 241.94500036 34 248.25 C26.12770587 250.4916024 18.76832777 249.94979585 11.375 246.375 C4.82107657 242.26892749 0.52477427 236.22960249 -1.2578125 228.703125 C-2.34190369 220.53784239 -0.99210811 213.25668374 3.9375 206.5625 C5.07110503 205.15671753 6.2186503 203.76213377 7.375 202.375 C18.57332822 188.60562704 37.375 163.88723571 37.375 145.375 C35.96976074 146.10819458 35.96976074 146.10819458 34.53613281 146.85620117 C31.00500222 148.6969255 27.47051266 150.53112083 23.93505859 152.36352539 C22.41560377 153.1521581 20.8970223 153.94247618 19.37939453 154.73461914 C-18.74094102 174.62513086 -18.74094102 174.62513086 -39 169.1875 C-43.66157673 167.55976911 -47.63049438 165.25173724 -51.625 162.375 C-52.635625 161.67375 -53.64625 160.9725 -54.6875 160.25 C-63.8745093 152.26784437 -67.95412575 140.06337147 -68.86328125 128.2890625 C-69.30871593 108.54927287 -61.10696799 92.73451271 -52.625 75.375 C-52.21652832 74.53839844 -51.80805664 73.70179688 -51.38720703 72.83984375 C-49.50279046 68.99920741 -47.58786157 65.17631642 -45.625 61.375 C-46.78 61.313125 -47.935 61.25125 -49.125 61.1875 C-55.38309317 60.39000848 -60.2664693 57.15806722 -64.4375 52.5 C-69.94747597 44.62860576 -70.70781025 37.94875797 -69.625 28.375 C-66.53363066 17.03997909 -55.69475558 7.03883539 -46.11328125 0.7734375 C-31.70779866 -7.3225794 -14.44149744 -8.84173313 0 0 Z M-52.14453125 28.8828125 C-54.48496377 32.8226435 -54.5376513 34.88779777 -53.625 39.375 C-51.83136089 42.1850346 -50.60619065 43.88440468 -47.625 45.375 C-42.17027632 45.69207936 -42.17027632 45.69207936 -37 44.3125 C-33.81796594 43.05643392 -31.88287048 43.45429747 -28.625 44.375 C-26.04320692 46.0665196 -25.6832158 47.14133737 -24.93164062 50.15795898 C-24.58876723 53.75512678 -25.0622067 55.39485747 -26.53125 58.66015625 C-26.99789062 59.70445801 -27.46453125 60.74875977 -27.9453125 61.82470703 C-31.63512243 69.62372099 -35.42627589 77.37032475 -39.25927734 85.09985352 C-51.36811054 108.05207343 -51.36811054 108.05207343 -51.90625 133.28515625 C-49.04323623 141.67794258 -45.56998435 147.99715148 -37.625 152.375 C-28.43766082 156.64818101 -19.18009593 154.38214443 -10.05493164 151.15112305 C-0.32298999 147.43086761 8.79217522 142.04023921 17.92749023 137.07250977 C20.59477993 135.62793681 23.27466476 134.20929933 25.95703125 132.79296875 C26.75518753 132.34930466 27.55334381 131.90564056 28.37568665 131.4485321 C34.05004011 128.47563461 38.97622977 127.47651656 45.375 128.375 C48.375 129.875 48.375 129.875 50.375 131.375 C51.035 131.375 51.695 131.375 52.375 131.375 C56.06294867 140.1338781 54.62154422 148.32721264 51.375 156.9375 C50.90187378 158.23059082 50.90187378 158.23059082 50.41918945 159.54980469 C42.56375586 180.56197949 31.47820925 198.83419169 17.14453125 216.0546875 C14.93636986 218.95015741 14.44917357 220.74049524 14.375 224.375 C15.6195062 227.90110091 16.7915075 229.87254812 19.625 232.3125 C23.43764092 233.78556581 25.45074568 233.52521247 29.375 232.375 C34.52301101 228.81604722 38.44305335 224.18852215 42.125 219.1875 C42.63522705 218.49825439 43.1454541 217.80900879 43.67114258 217.09887695 C62.65015727 190.90063501 80.30858169 156.53722784 77.375 123.375 C75.73275102 115.38993309 71.10289904 108.53884926 64.30859375 103.9921875 C56.67864758 100.08849411 48.94257351 100.37084944 40.875 102.8125 C26.86001521 107.96639763 13.59376548 115.18888066 0.44921875 122.2109375 C-0.60108521 122.7680542 -0.60108521 122.7680542 -1.67260742 123.33642578 C-3.41387327 124.26269125 -5.14880108 125.20084903 -6.8828125 126.140625 C-10.90030477 127.94906881 -14.30487075 127.95101723 -18.625 127.375 C-23.20181459 125.54427416 -25.3731855 122.71182792 -27.625 118.375 C-28.11470416 112.90595105 -26.9667407 108.91386564 -24.6640625 104.0390625 C-24.35143463 103.35196198 -24.03880676 102.66486145 -23.71670532 101.9569397 C-19.62782144 93.05101109 -15.25387108 84.27477814 -10.88085938 75.50585938 C1.2763791 52.25064654 1.2763791 52.25064654 1.3125 26.8125 C-1.18306808 20.17312817 -5.54218243 15.1095036 -11.875 11.875 C-28.26833251 5.62992095 -42.51352524 16.2337068 -52.14453125 28.8828125 Z " fill="#000000" transform="translate(221.625,75.625)"/>
<path d="M0 0 C0.72960937 -0.02835937 1.45921875 -0.05671875 2.2109375 -0.0859375 C8.70267422 1.15358505 13.40594871 6.84913874 17.875 11.375 C18.49890625 11.99117187 19.1228125 12.60734375 19.765625 13.2421875 C20.36375 13.84289062 20.961875 14.44359375 21.578125 15.0625 C22.11598633 15.60261719 22.65384766 16.14273438 23.20800781 16.69921875 C25.95904139 19.95268092 26.96339948 22.89645318 27.125 27.125 C27.20234375 28.32382813 27.20234375 28.32382813 27.28125 29.546875 C25.57272336 36.90981122 18.39254467 42.95711069 13.2421875 48.19921875 C12.19890793 49.26315605 12.19890793 49.26315605 11.134552 50.34858704 C9.67004503 51.83621479 8.20262316 53.32097812 6.73242188 54.80297852 C4.5107561 57.05161334 2.31431734 59.32312375 0.1171875 61.59570312 C-7.50632522 69.35934309 -13.72088884 75.34541372 -24.375 78.375 C-26.39869211 79.13829655 -28.41983822 79.90840288 -30.4375 80.6875 C-36.08682664 82.4843408 -41.49203549 83.63101754 -47.375 82.375 C-50.85203147 80.35647554 -53.56652962 77.99194077 -55.375 74.375 C-56.5737912 62.05848108 -52.55409919 48.58721534 -45.36791992 38.58001709 C-39.940266 32.08114675 -33.80464103 26.33310393 -27.625 20.5625 C-25.81303623 18.80881387 -24.00441799 17.05166421 -22.19921875 15.29101562 C-18.9128264 12.11227807 -15.62025385 8.94168954 -12.28222656 5.81713867 C-11.62240784 5.1981218 -10.96258911 4.57910492 -10.28277588 3.94132996 C-6.99823878 1.24464587 -4.24434025 0.07446211 0 0 Z M-2.44140625 19.34375 C-3.26511719 20.1790625 -4.08882813 21.014375 -4.9375 21.875 C-5.76378906 22.7103125 -6.59007812 23.545625 -7.44140625 24.40625 C-8.39853516 25.38078125 -8.39853516 25.38078125 -9.375 26.375 C-8.43909496 27.4805189 -7.50120142 28.58435453 -6.5625 29.6875 C-6.04042969 30.30238281 -5.51835937 30.91726562 -4.98046875 31.55078125 C-3.50327531 33.22924679 -1.97460869 34.81382034 -0.375 36.375 C3.91738623 34.72408222 6.5043915 31.63745434 9.625 28.375 C8.22198853 25.18826038 6.54734929 23.05278594 4.0625 20.625 C3.44246094 20.01140625 2.82242188 19.3978125 2.18359375 18.765625 C-0.20408525 16.63526479 -0.00692049 17.02431555 -2.44140625 19.34375 Z M-28.78027344 45.02832031 C-34.50264576 50.93628308 -36.52799199 57.51447753 -38.375 65.375 C-36.66454625 64.94586481 -34.95672118 64.50624751 -33.25 64.0625 C-32.29867188 63.81886719 -31.34734375 63.57523438 -30.3671875 63.32421875 C-24.30972782 61.40259642 -20.39853922 58.76435838 -16 54.1875 C-15.12601562 53.28644531 -14.25203125 52.38539063 -13.3515625 51.45703125 C-12.69929688 50.76996094 -12.04703125 50.08289063 -11.375 49.375 C-12.77801147 46.18826038 -14.45265071 44.05278594 -16.9375 41.625 C-17.55753906 41.01140625 -18.17757812 40.3978125 -18.81640625 39.765625 C-22.42733919 36.54384022 -26.04628541 42.40078846 -28.78027344 45.02832031 Z " fill="#000000" transform="translate(421.375,94.625)"/>
<path d="M0 0 C3.63514102 3.04416279 6.91175245 6.4477966 10.25 9.8125 C11.61511719 11.14764648 11.61511719 11.14764648 13.0078125 12.50976562 C13.87664062 13.37923828 14.74546875 14.24871094 15.640625 15.14453125 C16.82446777 16.32559448 16.82446777 16.32559448 18.03222656 17.53051758 C21.16869308 21.46666632 22.43631457 25.50248961 21.875 30.5 C21.81054688 31.2115625 21.74609375 31.923125 21.6796875 32.65625 C19.84295211 38.98982031 14.84135462 43.41482694 10.25 47.875 C9.64800781 48.46796875 9.04601562 49.0609375 8.42578125 49.671875 C6.95508055 51.11923124 5.4781733 52.5602763 4 54 C4.969375 54.61875 5.93875 55.2375 6.9375 55.875 C10 58 10 58 11 60 C11.29123466 63.34919863 11.36462337 65.35756835 9.6875 68.3125 C6.72998444 71.27001556 3.73231567 71.12918919 -0.23413086 71.14526367 C-1.83610573 71.15483345 -1.83610573 71.15483345 -3.47044373 71.16459656 C-4.62359573 71.16570938 -5.77674774 71.1668222 -6.96484375 71.16796875 C-8.74212608 71.17296135 -8.74212608 71.17296135 -10.55531311 71.17805481 C-13.06283174 71.1831208 -15.57035712 71.18546324 -18.07788086 71.18530273 C-21.9185697 71.18748922 -25.75897138 71.20564873 -29.59960938 71.22460938 C-32.03385318 71.22754332 -34.46809836 71.22952811 -36.90234375 71.23046875 C-38.62903542 71.24124702 -38.62903542 71.24124702 -40.39060974 71.25224304 C-41.46174515 71.24916641 -42.53288055 71.24608978 -43.63647461 71.24291992 C-44.57784775 71.24434494 -45.51922089 71.24576996 -46.48912048 71.24723816 C-49.14461635 70.9857601 -50.74839755 70.40535601 -53 69 C-55.09679403 66.30412197 -54.99510821 64.907056 -54.8125 61.4375 C-54.03313844 58.14020111 -53.65561386 56.96284503 -51 55 C-51.639375 54.195625 -52.27875 53.39125 -52.9375 52.5625 C-55.50004224 48.6820789 -56.40725823 44.62793445 -56 40 C-53.86203246 33.53346277 -50.24898998 29.6771609 -45.4453125 24.94921875 C-44.70675018 24.2092012 -43.96818787 23.46918365 -43.20724487 22.70674133 C-41.65030894 21.15145925 -40.08844408 19.60109748 -38.52197266 18.05541992 C-36.12752431 15.68999372 -33.75236203 13.30639164 -31.37890625 10.91992188 C-29.86048611 9.40773765 -28.34099079 7.89663211 -26.8203125 6.38671875 C-26.11182159 5.67529221 -25.40333069 4.96386566 -24.67337036 4.23088074 C-16.92822246 -3.36778009 -9.79979436 -5.42697475 0 0 Z M-13.79736328 16.5703125 C-14.97682229 17.75008943 -16.15076195 18.93539979 -17.3203125 20.125 C-17.93897186 20.74648926 -18.55763123 21.36797852 -19.19503784 22.00830078 C-21.17641731 24.00090523 -23.15074349 26.00034033 -25.125 28 C-26.46438602 29.34941282 -27.80422401 30.69837718 -29.14453125 32.046875 C-32.4349611 35.35939595 -35.71908006 38.67806068 -39 42 C-37.36082323 45.44163624 -35.49530349 47.95622694 -32.875 50.75 C-31.78832031 51.94882813 -31.78832031 51.94882813 -30.6796875 53.171875 C-27.69003637 55.21146207 -25.66457859 55.49370523 -22.07571411 55.39996338 C-18.39400582 54.6905456 -16.19279572 52.17355693 -13.75 49.53125 C-13.20641846 48.97634888 -12.66283691 48.42144775 -12.1027832 47.84973145 C-10.38206097 46.08445857 -8.69133511 44.29340259 -7 42.5 C-5.83390902 41.29375482 -4.66595717 40.08930562 -3.49609375 38.88671875 C-0.6421021 35.94483243 2.18532181 32.97950169 5 30 C3.72707565 27.21547798 2.40765908 25.15218436 0.25 22.984375 C-0.2759375 22.45585937 -0.801875 21.92734375 -1.34375 21.3828125 C-1.8903125 20.84398437 -2.436875 20.30515625 -3 19.75 C-3.81984375 18.91855469 -3.81984375 18.91855469 -4.65625 18.0703125 C-8.96312955 13.33344366 -8.96312955 13.33344366 -13.79736328 16.5703125 Z " fill="#000000" transform="translate(424,198)"/>
</svg>
